<svg version="1.1" viewBox="0 0 48 48" xmlns="http://www.w3.org/2000/svg" xmlns:osb="http://www.openswatchbook.org/uri/2009/osb"><g transform="matrix(.99999 0 0 .99999-58.37.882)" enable-background="new"><circle cx="82.37" cy="23.12" r="24" fill="#d33"/><path d="m87.77 23.725l5.939-5.939c.377-.372.566-.835.566-1.373 0-.54-.189-.997-.566-1.374l-2.747-2.747c-.377-.372-.835-.564-1.373-.564-.539 0-.997.186-1.374.564l-5.939 5.939-5.939-5.939c-.377-.372-.835-.564-1.374-.564-.539 0-.997.186-1.374.564l-2.748 2.747c-.377.378-.566.835-.566 1.374 0 .54.188.997.566 1.373l5.939 5.939-5.939 5.94c-.377.372-.566.835-.566 1.373 0 .54.188.997.566 1.373l2.748 2.747c.377.378.835.564 1.374.564.539 0 .997-.186 1.374-.564l5.939-5.939 5.94 5.939c.377.378.835.564 1.374.564.539 0 .997-.186 1.373-.564l2.747-2.747c.377-.372.566-.835.566-1.373 0-.54-.188-.997-.566-1.373l-5.939-5.94" fill="#fff"/></g></svg>
