<?xml version="1.0" encoding="UTF-8" standalone="no"?>
<!-- Generator: Adobe Illustrator 19.1.0, SVG Export Plug-In . SVG Version: 6.00 Build 0)  -->

<svg
   xmlns:dc="http://purl.org/dc/elements/1.1/"
   xmlns:cc="http://creativecommons.org/ns#"
   xmlns:rdf="http://www.w3.org/1999/02/22-rdf-syntax-ns#"
   xmlns:svg="http://www.w3.org/2000/svg"
   xmlns="http://www.w3.org/2000/svg"
   xmlns:sodipodi="http://sodipodi.sourceforge.net/DTD/sodipodi-0.dtd"
   xmlns:inkscape="http://www.inkscape.org/namespaces/inkscape"
   version="1.1"
   id="Capa_1"
   x="0px"
   y="0px"
   viewBox="0 0 432.60001 486.4"
   xml:space="preserve"
   sodipodi:docname="delete.svg"
   width="432.60001"
   height="486.39999"
   inkscape:version="0.92.3 (2405546, 2018-03-11)"><metadata
   id="metadata49"><rdf:RDF><cc:Work
       rdf:about=""><dc:format>image/svg+xml</dc:format><dc:type
         rdf:resource="http://purl.org/dc/dcmitype/StillImage" /></cc:Work></rdf:RDF></metadata><defs
   id="defs47" /><sodipodi:namedview
   pagecolor="#ffffff"
   bordercolor="#666666"
   borderopacity="1"
   objecttolerance="10"
   gridtolerance="10"
   guidetolerance="10"
   inkscape:pageopacity="0"
   inkscape:pageshadow="2"
   inkscape:window-width="1920"
   inkscape:window-height="1001"
   id="namedview45"
   showgrid="false"
   inkscape:zoom="0.48519737"
   inkscape:cx="216.3"
   inkscape:cy="243.2"
   inkscape:window-x="-9"
   inkscape:window-y="-9"
   inkscape:window-maximized="1"
   inkscape:current-layer="Capa_1" />
<g
   id="g12"
   transform="translate(-26.9)"
   style="fill:#d70000;fill-opacity:1">
	<g
   id="g10"
   style="fill:#d70000;fill-opacity:1">
		<path
   d="M 446,70 H 344.8 V 53.5 C 344.8,24 320.8,0 291.3,0 H 195.1 C 165.6,0 141.6,24 141.6,53.5 V 70 H 40.4 c -7.5,0 -13.5,6 -13.5,13.5 0,7.5 6,13.5 13.5,13.5 h 24.4 v 317.2 c 0,39.8 32.4,72.2 72.2,72.2 h 212.4 c 39.8,0 72.2,-32.4 72.2,-72.2 V 97 H 446 c 7.5,0 13.5,-6 13.5,-13.5 C 459.5,76 453.5,70 446,70 Z M 168.6,53.5 C 168.6,38.9 180.5,27 195.1,27 h 96.2 c 14.6,0 26.5,11.9 26.5,26.5 V 70 H 168.6 Z m 226,360.7 c 0,24.9 -20.3,45.2 -45.2,45.2 H 137 c -24.9,0 -45.2,-20.3 -45.2,-45.2 V 97 h 302.9 v 317.2 z"
   id="path2"
   inkscape:connector-curvature="0"
   style="fill:#d70000;fill-opacity:1" />
		<path
   d="m 243.2,411 c 7.5,0 13.5,-6 13.5,-13.5 V 158.9 c 0,-7.5 -6,-13.5 -13.5,-13.5 -7.5,0 -13.5,6 -13.5,13.5 v 238.5 c 0,7.5 6,13.6 13.5,13.6 z"
   id="path4"
   inkscape:connector-curvature="0"
   style="fill:#d70000;fill-opacity:1" />
		<path
   d="m 155.1,396.1 c 7.5,0 13.5,-6 13.5,-13.5 V 173.7 c 0,-7.5 -6,-13.5 -13.5,-13.5 -7.5,0 -13.5,6 -13.5,13.5 v 208.9 c 0,7.5 6.1,13.5 13.5,13.5 z"
   id="path6"
   inkscape:connector-curvature="0"
   style="fill:#d70000;fill-opacity:1" />
		<path
   d="m 331.3,396.1 c 7.5,0 13.5,-6 13.5,-13.5 V 173.7 c 0,-7.5 -6,-13.5 -13.5,-13.5 -7.5,0 -13.5,6 -13.5,13.5 v 208.9 c 0,7.5 6,13.5 13.5,13.5 z"
   id="path8"
   inkscape:connector-curvature="0"
   style="fill:#d70000;fill-opacity:1" />
	</g>
</g>
<g
   id="g14"
   transform="translate(-26.9)"
   style="fill:#d70000;fill-opacity:1">
</g>
<g
   id="g16"
   transform="translate(-26.9)"
   style="fill:#d70000;fill-opacity:1">
</g>
<g
   id="g18"
   transform="translate(-26.9)"
   style="fill:#d70000;fill-opacity:1">
</g>
<g
   id="g20"
   transform="translate(-26.9)"
   style="fill:#d70000;fill-opacity:1">
</g>
<g
   id="g22"
   transform="translate(-26.9)"
   style="fill:#d70000;fill-opacity:1">
</g>
<g
   id="g24"
   transform="translate(-26.9)"
   style="fill:#d70000;fill-opacity:1">
</g>
<g
   id="g26"
   transform="translate(-26.9)"
   style="fill:#d70000;fill-opacity:1">
</g>
<g
   id="g28"
   transform="translate(-26.9)"
   style="fill:#d70000;fill-opacity:1">
</g>
<g
   id="g30"
   transform="translate(-26.9)"
   style="fill:#d70000;fill-opacity:1">
</g>
<g
   id="g32"
   transform="translate(-26.9)"
   style="fill:#d70000;fill-opacity:1">
</g>
<g
   id="g34"
   transform="translate(-26.9)"
   style="fill:#d70000;fill-opacity:1">
</g>
<g
   id="g36"
   transform="translate(-26.9)"
   style="fill:#d70000;fill-opacity:1">
</g>
<g
   id="g38"
   transform="translate(-26.9)"
   style="fill:#d70000;fill-opacity:1">
</g>
<g
   id="g40"
   transform="translate(-26.9)"
   style="fill:#d70000;fill-opacity:1">
</g>
<g
   id="g42"
   transform="translate(-26.9)"
   style="fill:#d70000;fill-opacity:1">
</g>
</svg>