<svg version="1.1" viewBox="0 0 48 48" xmlns="http://www.w3.org/2000/svg"><g transform="matrix(.92307 0 0 .92307-24.891 2.712)" enable-background="new"><circle cx="52.97" cy="23.07" r="26" fill="#ffca00"/><path d="m66.804 16.712l-2.518-2.518c-.345-.346-.766-.518-1.259-.518-.494 0-.914.173-1.259.518l-12.148 12.167-5.444-5.463c-.346-.346-.766-.518-1.259-.518-.494 0-.914.173-1.259.518l-2.518 2.518c-.346.346-.518.766-.518 1.259 0 .494.173.914.518 1.259l6.704 6.704 2.519 2.518c.345.346.765.518 1.259.518.494 0 .914-.173 1.259-.518l2.519-2.518 13.407-13.407c.345-.346.518-.766.518-1.259 0-.494-.173-.914-.518-1.259" fill="#fff"/></g></svg>
