<?xml version="1.0" encoding="UTF-8" standalone="no"?>
<!-- Generator: Adobe Illustrator 18.1.1, SVG Export Plug-In . SVG Version: 6.00 Build 0)  -->

<svg
   xmlns:dc="http://purl.org/dc/elements/1.1/"
   xmlns:cc="http://creativecommons.org/ns#"
   xmlns:rdf="http://www.w3.org/1999/02/22-rdf-syntax-ns#"
   xmlns:svg="http://www.w3.org/2000/svg"
   xmlns="http://www.w3.org/2000/svg"
   xmlns:xlink="http://www.w3.org/1999/xlink"
   xmlns:sodipodi="http://sodipodi.sourceforge.net/DTD/sodipodi-0.dtd"
   xmlns:inkscape="http://www.inkscape.org/namespaces/inkscape"
   version="1.1"
   id="Capa_1"
   x="0px"
   y="0px"
   viewBox="0 0 18.015 18.453"
   xml:space="preserve"
   sodipodi:docname="preview.svg"
   inkscape:version="0.92.3 (2405546, 2018-03-11)"
   width="18.014999"
   height="18.452999"><metadata
   id="metadata49"><rdf:RDF><cc:Work
       rdf:about=""><dc:format>image/svg+xml</dc:format><dc:type
         rdf:resource="http://purl.org/dc/dcmitype/StillImage" /></cc:Work></rdf:RDF></metadata><defs
   id="defs47"><linearGradient
     inkscape:collect="always"
     id="linearGradient860"><stop
       style="stop-color:#000000;stop-opacity:1;"
       offset="0"
       id="stop856" /><stop
       style="stop-color:#000000;stop-opacity:0;"
       offset="1"
       id="stop858" /></linearGradient><linearGradient
     inkscape:collect="always"
     xlink:href="#linearGradient860"
     id="linearGradient862"
     x1="0.219"
     y1="9.2264996"
     x2="18.233999"
     y2="9.2264996"
     gradientUnits="userSpaceOnUse" /><linearGradient
     inkscape:collect="always"
     xlink:href="#linearGradient860"
     id="linearGradient864" /><linearGradient
     inkscape:collect="always"
     xlink:href="#linearGradient860"
     id="linearGradient866" /><linearGradient
     inkscape:collect="always"
     xlink:href="#linearGradient860"
     id="linearGradient868" /><linearGradient
     inkscape:collect="always"
     xlink:href="#linearGradient860"
     id="linearGradient870" /><linearGradient
     inkscape:collect="always"
     xlink:href="#linearGradient860"
     id="linearGradient872" /><linearGradient
     inkscape:collect="always"
     xlink:href="#linearGradient860"
     id="linearGradient874" /><linearGradient
     inkscape:collect="always"
     xlink:href="#linearGradient860"
     id="linearGradient876" /><linearGradient
     inkscape:collect="always"
     xlink:href="#linearGradient860"
     id="linearGradient878" /><linearGradient
     inkscape:collect="always"
     xlink:href="#linearGradient860"
     id="linearGradient880" /><linearGradient
     inkscape:collect="always"
     xlink:href="#linearGradient860"
     id="linearGradient882" /><linearGradient
     inkscape:collect="always"
     xlink:href="#linearGradient860"
     id="linearGradient884" /><linearGradient
     inkscape:collect="always"
     xlink:href="#linearGradient860"
     id="linearGradient886" /><linearGradient
     inkscape:collect="always"
     xlink:href="#linearGradient860"
     id="linearGradient888" /><linearGradient
     inkscape:collect="always"
     xlink:href="#linearGradient860"
     id="linearGradient890" /><linearGradient
     inkscape:collect="always"
     xlink:href="#linearGradient860"
     id="linearGradient892" /></defs><sodipodi:namedview
   pagecolor="#ffffff"
   bordercolor="#666666"
   borderopacity="1"
   objecttolerance="10"
   gridtolerance="10"
   guidetolerance="10"
   inkscape:pageopacity="0"
   inkscape:pageshadow="2"
   inkscape:window-width="1920"
   inkscape:window-height="1001"
   id="namedview45"
   showgrid="false"
   inkscape:zoom="12.789249"
   inkscape:cx="-4.050343"
   inkscape:cy="9.2265005"
   inkscape:window-x="-9"
   inkscape:window-y="-9"
   inkscape:window-maximized="1"
   inkscape:current-layer="Capa_1" />
<g
   id="g12"
   style="fill:#0000ff;fill-opacity:1"
   transform="translate(-0.219)">
	<g
   id="g10"
   style="fill:#0000ff;fill-opacity:1">
		<rect
   x="2.711"
   y="4.0580001"
   style="fill:#0000ff;fill-opacity:1"
   width="8.2299995"
   height="1.334"
   id="rect2" />
		<path
   style="fill:#0000ff;fill-opacity:1"
   d="m 14.972,14.088 c 0.638,-1.127 0.453,-2.563 -0.475,-3.49 -0.549,-0.549 -1.279,-0.852 -2.058,-0.852 -0.779,0 -1.51,0.303 -2.059,0.852 -0.549,0.549 -0.852,1.279 -0.852,2.059 0,0.777 0.303,1.508 0.852,2.059 0.549,0.547 1.279,0.85 2.057,0.85 0.507,0 0.998,-0.129 1.434,-0.375 l 3.262,3.262 1.101,-1.102 z m -1.308,-0.207 c -0.652,0.652 -1.796,0.652 -2.448,0 -0.675,-0.676 -0.675,-1.773 0,-2.449 0.326,-0.326 0.762,-0.506 1.225,-0.506 0.463,0 0.897,0.18 1.224,0.506 0.327,0.326 0.507,0.762 0.507,1.225 0,0.463 -0.181,0.897 -0.508,1.224 z"
   id="path4"
   inkscape:connector-curvature="0" />
		<path
   style="fill:#0000ff;fill-opacity:1"
   d="M 13.332,16.3 H 1.857 C 1.675,16.3 1.528,16.152 1.528,15.972 V 1.638 c 0,-0.182 0.147,-0.329 0.329,-0.329 h 11.475 c 0.182,0 0.328,0.147 0.328,0.329 V 8.95 c 0.475,0.104 0.918,0.307 1.31,0.597 V 1.638 C 14.97,0.735 14.236,0 13.332,0 H 1.857 C 0.954,0 0.219,0.735 0.219,1.638 v 14.334 c 0,0.902 0.735,1.637 1.638,1.637 h 11.475 c 0.685,0 1.009,-0.162 1.253,-0.76 L 13.991,16.255 C 13.772,16.347 13.426,16.3 13.332,16.3 Z"
   id="path6"
   inkscape:connector-curvature="0" />
		<rect
   x="2.711"
   y="7.8179998"
   style="fill:#0000ff;fill-opacity:1"
   width="8.2299995"
   height="1.334"
   id="rect8" />
	</g>
</g>
<g
   id="g14"
   style="fill:#0000ff;fill-opacity:1"
   transform="translate(-0.219)">
</g>
<g
   id="g16"
   style="fill:#0000ff;fill-opacity:1"
   transform="translate(-0.219)">
</g>
<g
   id="g18"
   style="fill:#0000ff;fill-opacity:1"
   transform="translate(-0.219)">
</g>
<g
   id="g20"
   style="fill:#0000ff;fill-opacity:1"
   transform="translate(-0.219)">
</g>
<g
   id="g22"
   style="fill:#0000ff;fill-opacity:1"
   transform="translate(-0.219)">
</g>
<g
   id="g24"
   style="fill:#0000ff;fill-opacity:1"
   transform="translate(-0.219)">
</g>
<g
   id="g26"
   style="fill:#0000ff;fill-opacity:1"
   transform="translate(-0.219)">
</g>
<g
   id="g28"
   style="fill:#0000ff;fill-opacity:1"
   transform="translate(-0.219)">
</g>
<g
   id="g30"
   style="fill:#0000ff;fill-opacity:1"
   transform="translate(-0.219)">
</g>
<g
   id="g32"
   style="fill:#0000ff;fill-opacity:1"
   transform="translate(-0.219)">
</g>
<g
   id="g34"
   style="fill:#0000ff;fill-opacity:1"
   transform="translate(-0.219)">
</g>
<g
   id="g36"
   style="fill:#0000ff;fill-opacity:1"
   transform="translate(-0.219)">
</g>
<g
   id="g38"
   style="fill:#0000ff;fill-opacity:1"
   transform="translate(-0.219)">
</g>
<g
   id="g40"
   style="fill:#0000ff;fill-opacity:1"
   transform="translate(-0.219)">
</g>
<g
   id="g42"
   style="fill:#0000ff;fill-opacity:1"
   transform="translate(-0.219)">
</g>
</svg>