<svg version="1.1" viewBox="0 0 768.05 1024" xmlns="http://www.w3.org/2000/svg"><path d="m655.46 473.47c11.875 81.719-13.062 167.78-76.812 230.59-94.188 92.938-239.5 104.38-346.38 34.562l74.875-73-275.19-38.375 38.407 268.75 84.031-80.5c150.91 111.25 364.94 100.75 502.06-34.562 79.5-78.438 115.75-182.56 111.25-285.31l-112.25-22.157zm-466-153.41c94.156-92.938 239.44-104.44 346.31-34.562l-75 72.969 275.19 38.406-38.375-268.88-83.938 80.688c-150.94-111.34-364.91-100.72-502.06 34.562-79.5 78.406-115.72 182.53-111.25 285.25l112.25 22.125c-11.875-81.75 13.125-167.72 76.875-230.56z" fill="#009e00"/></svg>
