<?xml version="1.0" encoding="UTF-8" standalone="no"?>
<!-- Generator: Adobe Illustrator 19.0.0, SVG Export Plug-In . SVG Version: 6.00 Build 0)  -->

<svg
   xmlns:dc="http://purl.org/dc/elements/1.1/"
   xmlns:cc="http://creativecommons.org/ns#"
   xmlns:rdf="http://www.w3.org/1999/02/22-rdf-syntax-ns#"
   xmlns:svg="http://www.w3.org/2000/svg"
   xmlns="http://www.w3.org/2000/svg"
   xmlns:sodipodi="http://sodipodi.sourceforge.net/DTD/sodipodi-0.dtd"
   xmlns:inkscape="http://www.inkscape.org/namespaces/inkscape"
   version="1.1"
   id="Layer_1"
   x="0px"
   y="0px"
   viewBox="0 0 512 232.116"
   xml:space="preserve"
   sodipodi:docname="sendmail.svg"
   width="512"
   height="232.116"
   inkscape:version="0.92.3 (2405546, 2018-03-11)"><metadata
   id="metadata55"><rdf:RDF><cc:Work
       rdf:about=""><dc:format>image/svg+xml</dc:format><dc:type
         rdf:resource="http://purl.org/dc/dcmitype/StillImage" /></cc:Work></rdf:RDF></metadata><defs
   id="defs53" /><sodipodi:namedview
   pagecolor="#ffffff"
   bordercolor="#666666"
   borderopacity="1"
   objecttolerance="10"
   gridtolerance="10"
   guidetolerance="10"
   inkscape:pageopacity="0"
   inkscape:pageshadow="2"
   inkscape:window-width="1920"
   inkscape:window-height="1001"
   id="namedview51"
   showgrid="false"
   inkscape:zoom="0.4609375"
   inkscape:cx="-106.30508"
   inkscape:cy="116.058"
   inkscape:window-x="-9"
   inkscape:window-y="-9"
   inkscape:window-maximized="1"
   inkscape:current-layer="Layer_1" />
<g
   id="g6"
   transform="translate(0,-139.942)"
   style="fill:#007b00;fill-opacity:1">
	<g
   id="g4"
   style="fill:#007b00;fill-opacity:1">
		<path
   d="M 501.801,139.942 H 171.312 c -5.633,0 -10.199,4.566 -10.199,10.199 v 19.235 h -97.21 c -5.633,0 -10.199,4.566 -10.199,10.199 0,5.633 4.566,10.199 10.199,10.199 h 97.21 v 132.452 h -58.101 c -5.633,0 -10.199,4.566 -10.199,10.199 0,5.633 4.566,10.199 10.199,10.199 h 58.101 v 19.235 c 0,5.633 4.566,10.199 10.199,10.199 h 330.489 c 5.633,0 10.199,-4.566 10.199,-10.199 V 150.141 c 0,-5.633 -4.566,-10.199 -10.199,-10.199 z M 476.641,160.34 336.571,275.325 197.14,160.34 Z m 14.961,191.321 h -310.09 v -177.77 l 148.556,122.51 c 1.884,1.553 4.186,2.331 6.489,2.331 2.295,0 4.591,-0.772 6.471,-2.316 L 491.602,174.45 Z"
   id="path2"
   inkscape:connector-curvature="0"
   style="fill:#007b00;fill-opacity:1" />
	</g>
</g>
<g
   id="g12"
   transform="translate(0,-139.942)"
   style="fill:#007b00;fill-opacity:1">
	<g
   id="g10"
   style="fill:#007b00;fill-opacity:1">
		<path
   d="M 119.673,244.768 H 10.199 C 4.566,244.768 0,249.334 0,254.967 c 0,5.633 4.566,10.199 10.199,10.199 h 109.474 c 5.633,0 10.199,-4.566 10.199,-10.199 10e-4,-5.633 -4.566,-10.199 -10.199,-10.199 z"
   id="path8"
   inkscape:connector-curvature="0"
   style="fill:#007b00;fill-opacity:1" />
	</g>
</g>
<g
   id="g18"
   transform="translate(0,-139.942)"
   style="fill:#007b00;fill-opacity:1">
	<g
   id="g16"
   style="fill:#007b00;fill-opacity:1">
		<path
   d="m 69.355,322.227 h -5.451 c -5.633,0 -10.199,4.566 -10.199,10.199 0,5.633 4.566,10.199 10.199,10.199 h 5.451 c 5.633,0 10.199,-4.566 10.199,-10.199 0,-5.633 -4.566,-10.199 -10.199,-10.199 z"
   id="path14"
   inkscape:connector-curvature="0"
   style="fill:#007b00;fill-opacity:1" />
	</g>
</g>
<g
   id="g20"
   transform="translate(0,-139.942)">
</g>
<g
   id="g22"
   transform="translate(0,-139.942)">
</g>
<g
   id="g24"
   transform="translate(0,-139.942)">
</g>
<g
   id="g26"
   transform="translate(0,-139.942)">
</g>
<g
   id="g28"
   transform="translate(0,-139.942)">
</g>
<g
   id="g30"
   transform="translate(0,-139.942)">
</g>
<g
   id="g32"
   transform="translate(0,-139.942)">
</g>
<g
   id="g34"
   transform="translate(0,-139.942)">
</g>
<g
   id="g36"
   transform="translate(0,-139.942)">
</g>
<g
   id="g38"
   transform="translate(0,-139.942)">
</g>
<g
   id="g40"
   transform="translate(0,-139.942)">
</g>
<g
   id="g42"
   transform="translate(0,-139.942)">
</g>
<g
   id="g44"
   transform="translate(0,-139.942)">
</g>
<g
   id="g46"
   transform="translate(0,-139.942)">
</g>
<g
   id="g48"
   transform="translate(0,-139.942)">
</g>
</svg>