<?xml version="1.0" standalone="no"?>
<!DOCTYPE svg PUBLIC "-//W3C//DTD SVG 20010904//EN"
 "http://www.w3.org/TR/2001/REC-SVG-20010904/DTD/svg10.dtd">
<svg version="1.0" xmlns="http://www.w3.org/2000/svg"
 width="512.000000pt" height="512.000000pt" viewBox="0 0 512.000000 512.000000"
 preserveAspectRatio="xMidYMid meet">
<metadata>
Created by potrace 1.11, written by Peter Selinger 2001-2013
</metadata>
<g transform="translate(0.000000,512.000000) scale(0.100000,-0.100000)"
fill="#000000" stroke="none">
<path d="M1257 4738 c-410 -706 -1250 -2166 -1250 -2173 0 -5 287 -506 638
-1113 l637 -1102 1278 0 1278 0 637 1103 c351 606 638 1107 638 1112 0 6 -287
506 -638 1113 l-637 1102 -1278 0 -1278 0 -25 -42z m2468 -158 l0 -65 -1145
-3 -1145 -2 -560 -970 c-308 -534 -559 -974 -558 -978 0 -4 252 -442 560 -974
l558 -968 1145 -2 1145 -3 0 -65 0 -65 -1185 0 -1185 0 -601 1040 c-536 926
-600 1042 -589 1060 6 11 274 475 595 1030 321 556 587 1016 593 1023 7 9 253
12 1191 10 l1181 -3 0 -65z m724 -1658 c105 -183 194 -339 197 -347 5 -13
-863 -1534 -876 -1535 -3 0 -35 280 -71 623 l-67 622 311 488 c170 268 311
486 312 485 1 -2 89 -153 194 -336z m-3279 -167 l303 -470 -57 -585 c-31 -322
-60 -602 -64 -622 -7 -35 -20 -14 -444 721 -241 416 -438 761 -438 766 0 17
385 674 391 667 3 -4 142 -218 309 -477z m2280 -507 c0 -16 148 -1413 155
-1460 l5 -38 -1051 0 -1051 0 6 48 c3 26 35 351 71 722 36 371 68 690 71 708
l5 32 894 0 c684 0 895 -3 895 -12z"/>
</g>
</svg>
